# xmcd CD database file
#
# Track frame offsets:
#	150
#	17966
#	32681
#	50438
#	69365
#	84635
#	98646
#	115888
#	140667
#	160932
#	182414
#	197214
#	209538
#	230371
#
# Disc length: 3275 seconds
#
# Revision: 0
# Processed by: cddbd v1.5.1PL2 Copyright (c) Steve Scherf et al.
# Submitted via: CDex 1.51
#
DISCID=be0cc90e
DTITLE=Varios - World Musics Celtic Vioces
DYEAR=2005
DGENRE=New Age
TTITLE0=Ripples of hope
TTITLE1=Siul a run
TTITLE2=Caribbean blue
TTITLE3=Ailein Duinn (The from Rob Roy)
TTITLE4=Sweetest summer rain
TTITLE5=Garden of graves
TTITLE6=She moved through the fair
TTITLE7=Hand in your hand
TTITLE8=Lovres heart
TTITLE9=Send me a song
TTITLE10=The lass of glenshee
TTITLE11=Harry's game
TTITLE12=You brought me up
TTITLE13=Le marais
EXTD=YEAR: 2005
EXTT0=
EXTT1=
EXTT2=
EXTT3=
EXTT4=
EXTT5=
EXTT6=
EXTT7=
EXTT8=
EXTT9=
EXTT10=
EXTT11=
EXTT12=
EXTT13=
PLAYORDER=
